<svg width="103" height="19" viewBox="0 0 103 19" fill="none" xmlns="http://www.w3.org/2000/svg">
<path d="M0.264 18H4.752V17.64C3.696 17.64 3.6 17.448 3.6 16.008V9.072H6.912V15.864C6.912 17.472 6.768 17.64 5.784 17.64V18H10.272V17.64C9.144 17.64 9.024 17.448 9.024 15.888V3.168C9.024 1.68 9.144 1.512 10.272 1.512V1.176H5.784V1.512C6.816 1.512 6.912 1.68 6.912 3.192V8.544H3.6V3.168C3.6 1.704 3.648 1.512 4.752 1.512V1.176H0.264V1.512C1.416 1.512 1.488 1.68 1.488 3.192V15.96C1.488 17.448 1.32 17.64 0.264 17.64V18ZM15.8303 16.056V18.072C16.4543 18.024 17.8703 18 18.7823 18V17.64C17.9183 17.64 17.7743 17.52 17.7743 16.488V6.168C17.0303 6.264 15.4943 6.288 14.8703 6.288V6.648C15.6623 6.648 15.8063 6.72 15.8063 7.848V13.848C15.8063 15.888 15.3983 17.328 14.4143 17.328C13.6223 17.328 13.4062 16.68 13.4062 15.096V6.168C12.7103 6.264 11.1503 6.264 10.5263 6.264V6.648C11.3183 6.648 11.4383 6.768 11.4383 7.896V14.688C11.4383 17.064 12.3503 18.144 13.9103 18.144C14.9183 18.144 15.5423 17.304 15.8303 16.056ZM22.4169 18.192C23.7849 18.192 25.0809 16.968 25.0809 14.544C25.0809 12.432 23.8569 11.4 22.5609 10.704C21.2889 10.032 20.6169 9.504 20.6169 8.208C20.6169 7.152 21.1209 6.432 21.9849 6.432C23.1609 6.432 23.9529 8.184 24.2409 10.224H24.6249C24.6009 8.928 24.5769 7.584 24.5769 6.264H24.1929C24.1449 6.696 24.0489 7.104 23.8329 7.104C23.6409 7.104 23.1849 6.048 21.9849 6.048C20.7849 6.048 19.5129 7.152 19.5129 9.36C19.5129 11.592 20.7609 12.552 22.0089 13.248C23.2329 13.92 24.0009 14.424 24.0009 15.768C24.0009 16.968 23.4009 17.808 22.4409 17.808C21.0489 17.808 20.1369 16.2 19.9209 13.128H19.5609C19.5609 14.376 19.5369 16.752 19.5129 18H19.8729C19.8969 17.496 20.0169 17.088 20.2329 17.088C20.4489 17.088 20.9529 18.192 22.4169 18.192ZM28.6719 18.216C29.8959 18.216 30.3759 17.088 30.3759 15.192V14.448H29.9679C29.9679 14.472 29.9679 14.808 29.9679 14.832C29.9679 16.2 29.7759 17.232 29.2239 17.232C28.6959 17.232 28.5039 16.704 28.5039 15.168V6.696H30.3519V6.264H28.5039C28.5039 5.04 28.5039 2.4 28.5039 1.32C28.4319 1.32 28.1199 1.32 28.0479 1.32C28.0239 1.44 28.0239 1.632 28.0239 1.728C27.9279 3.672 27.2079 5.976 25.8399 6.264C25.7679 6.288 25.5519 6.336 25.5039 6.336V6.696H26.5359C26.5359 9.384 26.5359 12.24 26.5359 14.904C26.5359 17.352 27.3519 18.216 28.6719 18.216ZM30.7311 18H34.8831V17.64C33.9951 17.64 33.7791 17.448 33.7791 16.368V0.792C33.0111 1.128 31.9551 1.152 30.7791 1.152V1.512C31.6431 1.512 31.8111 1.656 31.8111 2.712V16.344C31.8111 17.424 31.6911 17.64 30.7311 17.64V18ZM37.0785 3.84C37.7745 3.84 38.3505 3.264 38.3505 2.544C38.3505 1.824 37.7745 1.248 37.0785 1.248C36.3825 1.248 35.8065 1.824 35.8065 2.544C35.8065 3.264 36.3585 3.84 37.0785 3.84ZM35.2305 18H39.4305V17.64C38.4225 17.64 38.3025 17.448 38.3025 16.2V6.072C37.5585 6.216 36.7425 6.264 35.2305 6.264V6.648C36.2145 6.648 36.3345 6.768 36.3345 8.064V16.248C36.3345 17.448 36.2625 17.64 35.2305 17.64V18ZM39.7539 18H43.5939V17.64C42.8499 17.64 42.7539 17.448 42.7539 16.44V10.296C42.7539 8.28 43.1859 6.888 44.1939 6.888C44.9619 6.888 45.1539 7.776 45.1539 9.288V16.296C45.1539 17.496 44.9859 17.64 44.2659 17.64V18H48.1059V17.64C47.2419 17.64 47.1219 17.472 47.1219 16.32V9.696C47.1219 7.416 46.1859 6.072 44.6499 6.072C43.6899 6.072 42.9939 6.912 42.7299 8.184V6.168C42.1059 6.24 41.0019 6.264 39.7779 6.264V6.648C40.6419 6.648 40.7859 6.744 40.7859 7.872V16.32C40.7859 17.424 40.7139 17.64 39.7539 17.64V18ZM49.6984 8.256H50.0344C50.0824 7.032 50.2744 5.736 50.3944 4.656C50.4904 3.84 50.7544 2.784 50.7544 2.016C50.7544 1.272 50.4664 0.816 49.8904 0.816C49.3384 0.816 49.0264 1.296 49.0264 2.064C49.0264 2.784 49.2904 3.84 49.3624 4.656C49.5064 5.736 49.6984 7.032 49.6984 8.256ZM55.8812 18H60.3692V17.64C59.3132 17.64 59.2172 17.448 59.2172 16.008V9.072H62.5292V15.864C62.5292 17.472 62.3852 17.64 61.4012 17.64V18H65.8892V17.64C64.7612 17.64 64.6412 17.448 64.6412 15.888V3.168C64.6412 1.68 64.7612 1.512 65.8892 1.512V1.176H61.4012V1.512C62.4332 1.512 62.5292 1.68 62.5292 3.192V8.544H59.2172V3.168C59.2172 1.704 59.2652 1.512 60.3692 1.512V1.176H55.8812V1.512C57.0332 1.512 57.1052 1.68 57.1052 3.192V15.96C57.1052 17.448 56.9372 17.64 55.8812 17.64V18ZM68.4731 18.216C69.6731 18.216 70.2491 17.304 70.5131 16.08C70.6091 17.448 71.1371 18.216 72.0731 18.216C73.2971 18.216 73.8011 17.52 73.8011 15.36V14.472H73.3931C73.3931 14.544 73.3931 14.952 73.3931 15.048C73.3931 16.44 73.3211 17.256 72.8651 17.256C72.4571 17.256 72.4331 16.632 72.4331 15.84V10.992C72.4331 7.68 71.5691 6 69.4091 6C68.0651 6 66.6971 6.912 66.6971 8.928C66.6971 9.936 67.2251 10.56 67.8251 10.56C68.3531 10.56 68.9051 10.2 68.9051 9.384C68.9051 8.208 67.8011 8.376 67.8011 7.704C67.8011 7.008 68.3771 6.432 69.0491 6.432C70.4411 6.432 70.5371 8.016 70.5371 9.84V10.512C70.1531 10.608 69.5051 10.896 69.0971 11.064C67.7531 11.688 66.3131 12.888 66.3131 15.144C66.3131 17.16 67.0571 18.216 68.4731 18.216ZM69.1691 17.328C68.4251 17.328 68.2571 16.536 68.2571 14.928C68.2571 13.08 68.7131 11.976 69.6971 11.352C69.9611 11.16 70.2731 11.016 70.5371 10.944C70.5371 11.376 70.4891 12.552 70.4891 13.536C70.4891 14.016 70.4891 15.024 70.4651 15.168C70.3211 16.296 69.9131 17.328 69.1691 17.328ZM73.9258 18H78.0298V17.64C77.1178 17.64 76.9258 17.496 76.9258 16.344V9.144C77.1418 7.872 77.7418 6.624 78.5818 6.624C78.8458 6.624 78.9898 6.792 78.9898 7.032C78.9898 7.608 78.3418 7.872 78.3178 8.856C78.3178 9.528 78.7018 9.96 79.2778 9.96C79.8778 9.96 80.4298 9.384 80.4298 8.136C80.4298 6.816 79.6378 6.096 78.7978 6.096C77.7898 6.096 77.1898 6.936 76.9018 8.208V6.168C76.2058 6.264 74.7418 6.264 73.9498 6.264V6.648C74.8618 6.648 74.9578 6.792 74.9578 7.944V16.344C74.9578 17.448 74.8618 17.64 73.9258 17.64V18ZM83.85 18.216C84.81 18.216 85.386 17.184 85.602 16.128V18.12C86.154 18 87.714 18 88.53 18V17.64C87.642 17.64 87.522 17.52 87.522 16.344V0.792C86.898 1.056 85.842 1.152 84.474 1.152V1.512C85.41 1.512 85.554 1.752 85.554 2.76C85.554 2.76 85.554 7.296 85.554 7.776C85.386 6.936 84.978 6.072 84.018 6.072C82.218 6.072 80.73 8.28 80.73 12.12C80.73 15.792 82.074 18.216 83.85 18.216ZM84.138 17.592C82.938 17.592 82.89 15.192 82.89 12.432C82.89 9.144 83.13 6.696 84.258 6.696C84.738 6.696 84.978 7.056 85.146 7.512C85.458 8.376 85.554 9.528 85.554 11.184V13.968C85.554 15.6 85.194 17.592 84.138 17.592ZM92.4834 18.264C94.2834 18.264 95.9874 15.96 95.9874 12.168C95.9874 8.352 94.3314 6 92.4834 6C90.6354 6 88.9314 8.328 88.9314 12.168C88.9314 16.056 90.5634 18.264 92.4834 18.264ZM92.4834 17.88C91.2354 17.88 91.0914 15.648 91.0914 12.192C91.0914 8.304 91.2834 6.384 92.4594 6.384C93.7074 6.384 93.8274 8.28 93.8274 12.192C93.8274 15.672 93.6834 17.88 92.4834 17.88ZM99.8544 18.192C101.222 18.192 102.518 16.968 102.518 14.544C102.518 12.432 101.294 11.4 99.9984 10.704C98.7264 10.032 98.0544 9.504 98.0544 8.208C98.0544 7.152 98.5584 6.432 99.4224 6.432C100.598 6.432 101.39 8.184 101.678 10.224H102.062C102.038 8.928 102.014 7.584 102.014 6.264H101.63C101.582 6.696 101.486 7.104 101.27 7.104C101.078 7.104 100.622 6.048 99.4224 6.048C98.2224 6.048 96.9504 7.152 96.9504 9.36C96.9504 11.592 98.1984 12.552 99.4464 13.248C100.67 13.92 101.438 14.424 101.438 15.768C101.438 16.968 100.838 17.808 99.8784 17.808C98.4864 17.808 97.5744 16.2 97.3584 13.128H96.9984C96.9984 14.376 96.9744 16.752 96.9504 18H97.3104C97.3344 17.496 97.4544 17.088 97.6704 17.088C97.8864 17.088 98.3904 18.192 99.8544 18.192Z" fill="black"/>
</svg>
